<mxfile host="app.diagrams.net" modified="2023-04-26T08:20:14.673Z" agent="Mozilla/5.0 (Windows NT 10.0; Win64; x64) AppleWebKit/537.36 (KHTML, like Gecko) Chrome/112.0.0.0 Safari/537.36" version="21.2.2" etag="O7vTFAxgdftwxkuGwPX6" type="github">
  <diagram name="第 1 页" id="2tummYj-9fEoU1Pyykmd">
    <mxGraphModel>
      <root>
        <mxCell id="0" />
        <mxCell id="1" parent="0" />
      </root>
    </mxGraphModel>
  </diagram>
</mxfile>
